# xmcd
#
# Track frame offsets:
#	150
#	16388
#	30845
#	48831
#	63861
#	77494
#	95449
#	108856
#	126003
#	145292
#	154648
#	172150
#	187005
#	200361
#	215365
#	232040
#	246874
#	264090
#	279186
#
# Disc length: 3950 seconds
#
# Revision: 0
# Processed by: cddbd v1.5.1PL0 Copyright (c) Steve Scherf et al.
# Submitted via: EasyCDDAExtractor 8.2.1.1
#
DISCID=f40f6c13
DTITLE=пкоутаявос циаммгс - паеи кицос йаияос
DYEAR=2002
DGENRE=казйа
TTITLE0=апоье цмыяисе ле
TTITLE1=памсекгмос
TTITLE2=паеи кицос йаияос
TTITLE3=пыс ма цимоуле немои
TTITLE4=поу ма еисаи тыяа
TTITLE5=то цяалла
TTITLE6=сумеидгсг лоу
TTITLE7=ломо есу
TTITLE8=пыс лпояы ма се невасы
TTITLE9=отам ха жеуцеис
TTITLE10=вяыла тгс фыгс
TTITLE11=пес лоу циати лекацвокеис
TTITLE12=йкеимы аяца та бкежаяа лоу
TTITLE13=ма ле хуласаи думато
TTITLE14=йаядиа лоу поиос
TTITLE15=стяожг йакойаияиоу
TTITLE16=лгм ажгмеис еды
TTITLE17=то поуйалисо
TTITLE18=циати еисаи ока аута поу дем лпояы ма пы
EXTD=
EXTT0=
EXTT1=
EXTT2=
EXTT3=
EXTT4=
EXTT5=
EXTT6=
EXTT7=
EXTT8=
EXTT9=
EXTT10=
EXTT11=
EXTT12=
EXTT13=
EXTT14=
EXTT15=
EXTT16=
EXTT17=
EXTT18=
PLAYORDER=
